<svg version="1.2" xmlns="http://www.w3.org/2000/svg" viewBox="0 0 128 128" width="128" height="128">
	<style>
		.s0 { opacity: .2;fill: #2d6a2d } 
		.s1 { fill: #2d6a2d } 
	</style>
	<path class="s0" d="m48 120l8-40-32-12 56-60-8 40 32 12z"/>
	<path class="s1" d="m107.89 59.09q-0.11-0.49-0.34-0.92-0.22-0.44-0.55-0.81-0.33-0.37-0.73-0.65-0.41-0.28-0.88-0.46l-28.8-10.8 7.33-36.66c0.17-0.86 0.05-1.74-0.33-2.52-0.38-0.78-1-1.42-1.78-1.81-0.77-0.4-1.65-0.53-2.5-0.38-0.86 0.15-1.64 0.57-2.23 1.2l-56 60q-0.69 0.74-0.96 1.71-0.26 0.97-0.04 1.95 0.23 0.98 0.89 1.74 0.66 0.75 1.61 1.1l28.81 10.81-7.31 36.63c-0.17 0.85-0.05 1.73 0.33 2.51 0.38 0.78 1 1.42 1.78 1.81 0.77 0.4 1.65 0.53 2.5 0.38 0.86-0.15 1.64-0.57 2.23-1.21l56-60q0.34-0.35 0.58-0.78 0.24-0.43 0.36-0.91 0.13-0.47 0.14-0.97 0.01-0.49-0.11-0.97zm-53.2 47.92l5.23-26.19q0.14-0.7 0.03-1.4-0.11-0.7-0.45-1.32-0.34-0.63-0.88-1.09-0.54-0.47-1.2-0.72l-26.42-9.93 42.31-45.33-5.23 26.19q-0.14 0.7-0.03 1.4 0.11 0.71 0.45 1.33 0.34 0.62 0.88 1.09 0.54 0.46 1.2 0.71l26.4 9.9z"/>
</svg>